<svg width="54" height="54" viewBox="0 0 54 54" fill="none" xmlns="http://www.w3.org/2000/svg">
<path d="M42.3518 41.2721C45.7025 41.2721 48.4189 38.5655 48.4189 35.2267C48.4189 31.888 45.7025 29.1814 42.3518 29.1814C39.001 29.1814 36.2847 31.888 36.2847 35.2267C36.2847 38.5655 39.001 41.2721 42.3518 41.2721Z" stroke="#110303" stroke-width="5" stroke-linecap="round" stroke-linejoin="round"/>
<path d="M18.0832 17.0907C21.434 17.0907 24.1503 14.3841 24.1503 11.0453C24.1503 7.70659 21.434 5 18.0832 5C14.7324 5 12.0161 7.70659 12.0161 11.0453C12.0161 14.3841 14.7324 17.0907 18.0832 17.0907Z" stroke="#110303" stroke-width="5" stroke-linecap="round" stroke-linejoin="round"/>
<path d="M32.2397 11.0453H38.3068C39.3796 11.0453 40.4084 11.47 41.1669 12.2258C41.9254 12.9816 42.3516 14.0067 42.3516 15.0756V29.1814" stroke="#110303" stroke-width="5" stroke-linecap="round" stroke-linejoin="round"/>
<path d="M18.083 17.0907V41.2721" stroke="#110303" stroke-width="5" stroke-linecap="round" stroke-linejoin="round"/>
</svg>
