<svg width="61" height="61" viewBox="0 0 61 61" fill="none" xmlns="http://www.w3.org/2000/svg">
<path d="M25.4766 47L22.6289 39.3535H12.5566L9.74414 47H6L15.8086 21.1953H19.5L29.2559 47H25.4766ZM21.627 36.2246L18.9199 28.6484C18.8379 28.3906 18.709 28.0039 18.5332 27.4883C18.3691 26.9727 18.1992 26.4395 18.0234 25.8887C17.8594 25.3379 17.7246 24.8809 17.6191 24.5176C17.502 24.998 17.3672 25.5078 17.2148 26.0469C17.0625 26.5742 16.9102 27.0723 16.7578 27.541C16.6172 27.998 16.5 28.3672 16.4062 28.6484L13.6641 36.2246H21.627Z" fill="#E87C40"/>
<path d="M39.7324 27.2949C42.123 27.2949 43.9102 27.8281 45.0938 28.8945C46.2773 29.9492 46.8691 31.6191 46.8691 33.9043V47H44.3379L43.6523 44.1875H43.5117C42.9727 44.8906 42.4102 45.4766 41.8242 45.9453C41.2383 46.4141 40.5586 46.7656 39.7852 47C39.0234 47.2344 38.0918 47.3516 36.9902 47.3516C35.8184 47.3516 34.7754 47.1406 33.8613 46.7188C32.9473 46.2969 32.2266 45.6641 31.6992 44.8203C31.1836 43.9648 30.9258 42.8809 30.9258 41.5684C30.9258 39.5996 31.6816 38.1055 33.1934 37.0859C34.7051 36.0664 36.9961 35.5098 40.0664 35.416L43.4062 35.2754V34.1855C43.4062 32.6738 43.0664 31.6074 42.3867 30.9863C41.7188 30.3652 40.7812 30.0547 39.5742 30.0547C38.5781 30.0547 37.623 30.2012 36.709 30.4941C35.7949 30.7754 34.916 31.1152 34.0723 31.5137L32.9473 28.9473C33.8613 28.4785 34.8984 28.0859 36.0586 27.7695C37.2305 27.4531 38.4551 27.2949 39.7324 27.2949ZM43.3711 37.5957L40.6641 37.7188C38.4258 37.8008 36.8496 38.1758 35.9355 38.8438C35.0332 39.5 34.582 40.4199 34.582 41.6035C34.582 42.6348 34.8926 43.3906 35.5137 43.8711C36.1348 44.3516 36.9551 44.5918 37.9746 44.5918C39.5449 44.5918 40.834 44.1523 41.8418 43.2734C42.8613 42.3828 43.3711 41.0703 43.3711 39.3359V37.5957Z" fill="#E87C40"/>
<path d="M30.4766 43L27.6289 35.3535H17.5566L14.7441 43H11L20.8086 17.1953H24.5L34.2559 43H30.4766ZM26.627 32.2246L23.9199 24.6484C23.8379 24.3906 23.709 24.0039 23.5332 23.4883C23.3691 22.9727 23.1992 22.4395 23.0234 21.8887C22.8594 21.3379 22.7246 20.8809 22.6191 20.5176C22.502 20.998 22.3672 21.5078 22.2148 22.0469C22.0625 22.5742 21.9102 23.0723 21.7578 23.541C21.6172 23.998 21.5 24.3672 21.4062 24.6484L18.6641 32.2246H26.627Z" fill="#110303"/>
<path d="M44.7324 23.2949C47.123 23.2949 48.9102 23.8281 50.0938 24.8945C51.2773 25.9492 51.8691 27.6191 51.8691 29.9043V43H49.3379L48.6523 40.1875H48.5117C47.9727 40.8906 47.4102 41.4766 46.8242 41.9453C46.2383 42.4141 45.5586 42.7656 44.7852 43C44.0234 43.2344 43.0918 43.3516 41.9902 43.3516C40.8184 43.3516 39.7754 43.1406 38.8613 42.7188C37.9473 42.2969 37.2266 41.6641 36.6992 40.8203C36.1836 39.9648 35.9258 38.8809 35.9258 37.5684C35.9258 35.5996 36.6816 34.1055 38.1934 33.0859C39.7051 32.0664 41.9961 31.5098 45.0664 31.416L48.4062 31.2754V30.1855C48.4062 28.6738 48.0664 27.6074 47.3867 26.9863C46.7188 26.3652 45.7812 26.0547 44.5742 26.0547C43.5781 26.0547 42.623 26.2012 41.709 26.4941C40.7949 26.7754 39.916 27.1152 39.0723 27.5137L37.9473 24.9473C38.8613 24.4785 39.8984 24.0859 41.0586 23.7695C42.2305 23.4531 43.4551 23.2949 44.7324 23.2949ZM48.3711 33.5957L45.6641 33.7188C43.4258 33.8008 41.8496 34.1758 40.9355 34.8438C40.0332 35.5 39.582 36.4199 39.582 37.6035C39.582 38.6348 39.8926 39.3906 40.5137 39.8711C41.1348 40.3516 41.9551 40.5918 42.9746 40.5918C44.5449 40.5918 45.834 40.1523 46.8418 39.2734C47.8613 38.3828 48.3711 37.0703 48.3711 35.3359V33.5957Z" fill="#110303"/>
</svg>
