<svg width="61" height="61" viewBox="0 0 61 61" fill="none" xmlns="http://www.w3.org/2000/svg">
<path d="M28.2268 24.126C37.4903 24.126 44.9999 21.6228 44.9999 18.5349C44.9999 15.447 37.4903 12.9438 28.2268 12.9438C18.9632 12.9438 11.4536 15.447 11.4536 18.5349C11.4536 21.6228 18.9632 24.126 28.2268 24.126Z" stroke="#E87C40" stroke-width="4" stroke-linecap="round" stroke-linejoin="round"/>
<path d="M44.9999 31.5808C44.9999 34.6745 37.5452 37.1718 28.2268 37.1718C18.9084 37.1718 11.4536 34.6745 11.4536 31.5808" stroke="#E87C40" stroke-width="4" stroke-linecap="round" stroke-linejoin="round"/>
<path d="M11.4536 18.5349V44.6265C11.4536 47.7202 18.9084 50.2175 28.2268 50.2175C37.5452 50.2175 44.9999 47.7202 44.9999 44.6265V18.5349" stroke="#E87C40" stroke-width="4" stroke-linecap="round" stroke-linejoin="round"/>
<path d="M38.2268 17.126C47.4903 17.126 54.9999 14.6228 54.9999 11.5349C54.9999 8.44705 47.4903 5.94385 38.2268 5.94385C28.9632 5.94385 21.4536 8.44705 21.4536 11.5349C21.4536 14.6228 28.9632 17.126 38.2268 17.126Z" stroke="#110303" stroke-width="4" stroke-linecap="round" stroke-linejoin="round"/>
<path d="M54.9999 24.5807C54.9999 27.6744 47.5452 30.1717 38.2268 30.1717C28.9084 30.1717 21.4536 27.6744 21.4536 24.5807" stroke="#110303" stroke-width="4" stroke-linecap="round" stroke-linejoin="round"/>
<path d="M21.4536 11.5349V37.6265C21.4536 40.7202 28.9084 43.2175 38.2268 43.2175C47.5452 43.2175 54.9999 40.7202 54.9999 37.6265V11.5349" stroke="#110303" stroke-width="4" stroke-linecap="round" stroke-linejoin="round"/>
</svg>
