<svg width="180" height="43" viewBox="0 0 180 43" fill="none" xmlns="http://www.w3.org/2000/svg">
<path d="M21.6667 17.1909L43.3336 3.8147e-06L64.9999 17.1909L43.3336 34.3821L21.6667 17.1909Z" fill="white"/>
<path d="M0 17.191L21.6668 0.000106812L43.3336 17.191L21.6668 34.3822L0 17.191Z" fill="#3B557D"/>
<path d="M79.9668 35.9487C79.9668 36.801 79.752 37.6102 79.3223 38.3765C78.8926 39.1356 78.223 39.7515 77.3135 40.2241C76.4111 40.6968 75.2438 40.9331 73.8115 40.9331C73.0954 40.9331 72.4652 40.9009 71.9209 40.8364C71.3838 40.772 70.8825 40.6681 70.417 40.5249C69.9515 40.3745 69.4681 40.1812 68.9668 39.9448V36.1636C69.819 36.5933 70.6784 36.9227 71.5449 37.1519C72.4115 37.3739 73.1956 37.4849 73.8975 37.4849C74.32 37.4849 74.6637 37.4347 74.9287 37.3345C75.2008 37.2342 75.4014 37.0982 75.5303 36.9263C75.6592 36.7472 75.7236 36.5431 75.7236 36.314C75.7236 36.0418 75.627 35.8127 75.4336 35.6265C75.2474 35.4331 74.9466 35.2326 74.5312 35.0249C74.1159 34.8172 73.568 34.5594 72.8877 34.2515C72.3076 33.9793 71.7812 33.7 71.3086 33.4136C70.8431 33.1271 70.4421 32.8013 70.1055 32.4361C69.776 32.0637 69.5218 31.6304 69.3428 31.1362C69.1637 30.6421 69.0742 30.0584 69.0742 29.3853C69.0742 28.3755 69.3213 27.5305 69.8154 26.8501C70.3167 26.1626 71.0114 25.647 71.8994 25.3032C72.7946 24.9595 73.8258 24.7876 74.9932 24.7876C76.0173 24.7876 76.9375 24.9022 77.7539 25.1314C78.5775 25.3605 79.3151 25.6219 79.9668 25.9155L78.667 29.1919C77.9938 28.884 77.3314 28.6405 76.6797 28.4614C76.028 28.2752 75.4229 28.1821 74.8643 28.1821C74.499 28.1821 74.1982 28.2287 73.9619 28.3218C73.7327 28.4077 73.5609 28.5259 73.4463 28.6763C73.3389 28.8267 73.2852 28.9986 73.2852 29.1919C73.2852 29.4354 73.3783 29.6538 73.5645 29.8472C73.7578 30.0405 74.0765 30.2518 74.5205 30.481C74.9717 30.703 75.584 30.993 76.3574 31.3511C77.1237 31.6948 77.7754 32.0672 78.3125 32.4683C78.8496 32.8622 79.2578 33.3384 79.5371 33.897C79.8236 34.4484 79.9668 35.1323 79.9668 35.9487ZM97.0898 32.8443C97.0898 34.0545 96.943 35.1574 96.6494 36.1528C96.363 37.1411 95.9118 37.9933 95.2959 38.7095C94.68 39.4256 93.8887 39.9771 92.9219 40.3638C91.9551 40.7433 90.7985 40.9331 89.4521 40.9331C88.1344 40.9331 86.9922 40.7433 86.0254 40.3638C85.0658 39.9771 84.2744 39.4292 83.6514 38.7202C83.0283 38.0041 82.5664 37.1483 82.2656 36.1528C81.9648 35.1574 81.8145 34.0474 81.8145 32.8228C81.8145 31.19 82.083 29.772 82.6201 28.5689C83.1644 27.3586 84.0023 26.424 85.1338 25.7652C86.2653 25.0991 87.7119 24.7661 89.4736 24.7661C91.264 24.7661 92.7178 25.0991 93.835 25.7652C94.9593 26.4312 95.7829 27.3693 96.3057 28.5796C96.8285 29.7899 97.0898 31.2114 97.0898 32.8443ZM86.2832 32.8443C86.2832 33.7896 86.3906 34.6024 86.6055 35.2827C86.8203 35.9631 87.1605 36.4859 87.626 36.8511C88.0915 37.2163 88.7002 37.3989 89.4521 37.3989C90.2327 37.3989 90.8522 37.2163 91.3105 36.8511C91.776 36.4859 92.109 35.9631 92.3096 35.2827C92.5173 34.6024 92.6211 33.7896 92.6211 32.8443C92.6211 31.4263 92.3848 30.3055 91.9121 29.4819C91.4395 28.6584 90.6266 28.2466 89.4736 28.2466C88.7074 28.2466 88.0879 28.4328 87.6152 28.8052C87.1497 29.1776 86.8096 29.7075 86.5947 30.395C86.387 31.0825 86.2832 31.8989 86.2832 32.8443ZM105.071 25.0132C106.496 25.0132 107.682 25.1887 108.627 25.5396C109.572 25.8833 110.281 26.3989 110.754 27.0864C111.234 27.7739 111.474 28.6297 111.474 29.6538C111.474 30.2912 111.366 30.8713 111.151 31.3941C110.937 31.9168 110.629 32.3859 110.228 32.8013C109.834 33.2095 109.361 33.5676 108.81 33.8755L113.386 40.7183H108.573L105.243 35.0034H104.169V40.7183H99.9258V25.0132H105.071ZM105.007 28.2251H104.169V31.813H104.964C105.616 31.813 106.149 31.6698 106.564 31.3833C106.98 31.0969 107.188 30.5848 107.188 29.8472C107.188 29.3387 107.016 28.9413 106.672 28.6548C106.328 28.3683 105.773 28.2251 105.007 28.2251ZM129.51 32.8443C129.51 34.0545 129.363 35.1574 129.069 36.1528C128.783 37.1411 128.332 37.9933 127.716 38.7095C127.1 39.4256 126.309 39.9771 125.342 40.3638C124.375 40.7433 123.218 40.9331 121.872 40.9331C120.554 40.9331 119.412 40.7433 118.445 40.3638C117.486 39.9771 116.694 39.4292 116.071 38.7202C115.448 38.0041 114.986 37.1483 114.686 36.1528C114.385 35.1574 114.234 34.0474 114.234 32.8228C114.234 31.19 114.503 29.772 115.04 28.5689C115.584 27.3586 116.422 26.424 117.554 25.7652C118.685 25.0991 120.132 24.7661 121.894 24.7661C123.684 24.7661 125.138 25.0991 126.255 25.7652C127.379 26.4312 128.203 27.3693 128.726 28.5796C129.248 29.7899 129.51 31.2114 129.51 32.8443ZM118.703 32.8443C118.703 33.7896 118.811 34.6024 119.025 35.2827C119.24 35.9631 119.58 36.4859 120.046 36.8511C120.511 37.2163 121.12 37.3989 121.872 37.3989C122.653 37.3989 123.272 37.2163 123.73 36.8511C124.196 36.4859 124.529 35.9631 124.729 35.2827C124.937 34.6024 125.041 33.7896 125.041 32.8443C125.041 31.4263 124.805 30.3055 124.332 29.4819C123.859 28.6584 123.047 28.2466 121.894 28.2466C121.127 28.2466 120.508 28.4328 120.035 28.8052C119.57 29.1776 119.229 29.7075 119.015 30.395C118.807 31.0825 118.703 31.8989 118.703 32.8443ZM145.763 40.7183H140.972L137.867 34.7134L136.61 35.4653V40.7183H132.346V25.0132H136.61V31.8345C136.789 31.4907 136.993 31.147 137.223 30.8032C137.459 30.4595 137.688 30.1336 137.91 29.8257L141.208 25.0132H145.849L140.896 32.0493L145.763 40.7183ZM147.471 40.7183V25.0132H151.735V40.7183H147.471ZM170.094 40.7183H164.529L158.793 29.6538H158.696C158.732 29.9904 158.764 30.395 158.793 30.8677C158.822 31.3403 158.847 31.8237 158.868 32.3179C158.89 32.8049 158.9 33.2453 158.9 33.6392V40.7183H155.141V25.0132H160.684L166.398 35.9273H166.463C166.441 35.5835 166.42 35.1861 166.398 34.7349C166.377 34.2765 166.355 33.8146 166.334 33.3491C166.32 32.8836 166.312 32.4719 166.312 32.1138V25.0132H170.094V40.7183Z" fill="#3B557D"/>
</svg>
