<svg width="61" height="61" viewBox="0 0 61 61" fill="none" xmlns="http://www.w3.org/2000/svg">
<path d="M39.5063 26.7373L20.519 15.788" stroke="#E87C40" stroke-width="4" stroke-linecap="round" stroke-linejoin="round"/>
<path d="M48.9999 40.6612V23.7836C48.9991 23.0437 48.8038 22.317 48.4335 21.6764C48.0632 21.0358 47.531 20.5038 46.8902 20.1339L32.1223 11.6951C31.4809 11.3247 30.7533 11.1298 30.0126 11.1298C29.272 11.1298 28.5444 11.3247 27.903 11.6951L13.1351 20.1339C12.4943 20.5038 11.9621 21.0358 11.5918 21.6764C11.2215 22.317 11.0261 23.0437 11.0254 23.7836V40.6612C11.0261 41.4011 11.2215 42.1278 11.5918 42.7684C11.9621 43.409 12.4943 43.941 13.1351 44.311L27.903 52.7498C28.5444 53.1201 29.272 53.315 30.0126 53.315C30.7533 53.315 31.4809 53.1201 32.1223 52.7498L46.8902 44.311C47.531 43.941 48.0632 43.409 48.4335 42.7684C48.8038 42.1278 48.9991 41.4011 48.9999 40.6612Z" stroke="#E87C40" stroke-width="4" stroke-linecap="round" stroke-linejoin="round"/>
<path d="M11.5952 21.5897L30.0129 32.2436L48.4305 21.5897" stroke="#E87C40" stroke-width="4" stroke-linecap="round" stroke-linejoin="round"/>
<path d="M30.0127 53.4884V32.2226" stroke="#E87C40" stroke-width="4" stroke-linecap="round" stroke-linejoin="round"/>
<path d="M46.5063 19.7373L27.519 8.78802" stroke="#110303" stroke-width="4" stroke-linecap="round" stroke-linejoin="round"/>
<path d="M55.9999 33.6612V16.7836C55.9991 16.0437 55.8038 15.317 55.4335 14.6764C55.0632 14.0358 54.531 13.5038 53.8902 13.1339L39.1223 4.69505C38.4809 4.32472 37.7533 4.12976 37.0126 4.12976C36.272 4.12976 35.5444 4.32472 34.903 4.69505L20.1351 13.1339C19.4943 13.5038 18.9621 14.0358 18.5918 14.6764C18.2215 15.317 18.0261 16.0437 18.0254 16.7836V33.6612C18.0261 34.4011 18.2215 35.1278 18.5918 35.7684C18.9621 36.409 19.4943 36.941 20.1351 37.311L34.903 45.7498C35.5444 46.1201 36.272 46.315 37.0126 46.315C37.7533 46.315 38.4809 46.1201 39.1223 45.7498L53.8902 37.311C54.531 36.941 55.0632 36.409 55.4335 35.7684C55.8038 35.1278 55.9991 34.4011 55.9999 33.6612Z" stroke="#110303" stroke-width="4" stroke-linecap="round" stroke-linejoin="round"/>
<path d="M18.5952 14.5897L37.0129 25.2436L55.4305 14.5897" stroke="#110303" stroke-width="4" stroke-linecap="round" stroke-linejoin="round"/>
<path d="M37.0127 46.4884V25.2226" stroke="#110303" stroke-width="4" stroke-linecap="round" stroke-linejoin="round"/>
</svg>
