<svg width="27" height="26" viewBox="0 0 27 26" fill="none" xmlns="http://www.w3.org/2000/svg">
<path d="M21.6818 3.24675C21.421 3.26573 21.165 3.32692 20.9238 3.42794H20.9205C20.6889 3.51975 19.588 3.98288 17.9143 4.68488L11.9164 7.21094C7.61257 9.02282 3.38188 10.8071 3.38188 10.8071L3.43226 10.7876C3.43226 10.7876 3.14057 10.8834 2.83588 11.0923C2.64765 11.212 2.48567 11.3688 2.35976 11.5529C2.21026 11.7723 2.09001 12.1079 2.13469 12.4548C2.20782 13.0414 2.58807 13.3933 2.86107 13.5874C3.13732 13.7841 3.40057 13.8759 3.40057 13.8759H3.40707L7.37451 15.2124C7.55244 15.7836 8.5835 19.1734 8.83132 19.9542C8.97757 20.4206 9.11975 20.7123 9.29769 20.9349C9.38382 21.0486 9.48457 21.1437 9.60563 21.2201C9.66857 21.2567 9.73567 21.2856 9.8055 21.3062L9.76488 21.2964C9.77707 21.2997 9.78682 21.3094 9.79575 21.3127C9.82825 21.3216 9.85019 21.3249 9.89163 21.3314C10.5197 21.5215 11.0243 21.1315 11.0243 21.1315L11.0527 21.1088L13.3951 18.9759L17.3211 21.9879L17.4105 22.0261C18.2287 22.3852 19.0574 22.1853 19.4954 21.8327C19.9366 21.4776 20.108 21.0234 20.108 21.0234L20.1364 20.9503L23.1703 5.408C23.2564 5.0245 23.2784 4.66538 23.1833 4.31682C23.0853 3.96405 22.8589 3.66065 22.5488 3.46613C22.2883 3.30779 21.9862 3.23136 21.6818 3.24675ZM21.5998 4.91238C21.5965 4.96357 21.6063 4.95788 21.5835 5.05619V5.06513L18.5781 20.4458C18.5651 20.4677 18.5431 20.5156 18.483 20.5636C18.4196 20.6139 18.3693 20.6456 18.1052 20.5408L13.3033 16.8594L10.4027 19.5033L11.0121 15.6114L18.8576 8.29888C19.1809 7.99825 19.0729 7.93488 19.0729 7.93488C19.0956 7.566 18.5846 7.82682 18.5846 7.82682L8.69157 13.9555L8.68832 13.9393L3.94657 12.3427V12.3394L3.93438 12.337C3.94269 12.3342 3.95083 12.331 3.95876 12.3273L3.98476 12.3143L4.00994 12.3053C4.00994 12.3053 8.24388 10.5211 12.5477 8.70919C14.7024 7.80163 16.8734 6.88757 18.5431 6.18232C20.2128 5.48113 21.447 4.96682 21.5169 4.93919C21.5835 4.91319 21.5518 4.91319 21.5998 4.91319V4.91238Z" fill="white"/>
</svg>
