<svg width="27" height="26" viewBox="0 0 27 26" fill="none" xmlns="http://www.w3.org/2000/svg">
<path d="M18.6162 15.2318C18.3395 15.0896 16.9608 14.4143 16.7043 14.3229C16.4479 14.2264 16.26 14.1807 16.0746 14.465C15.8867 14.7469 15.3535 15.374 15.186 15.5645C15.0235 15.7523 14.8584 15.7752 14.5817 15.6355C12.9363 14.8129 11.8572 14.168 10.7731 12.3068C10.4862 11.8117 11.06 11.8473 11.5957 10.7783C11.6871 10.5904 11.6414 10.4305 11.5703 10.2883C11.4992 10.1461 10.9406 8.76992 10.7071 8.20879C10.4811 7.66289 10.2475 7.73906 10.0774 7.72891C9.91487 7.71875 9.72952 7.71875 9.54163 7.71875C9.35373 7.71875 9.05159 7.78984 8.79514 8.0666C8.5387 8.34844 7.81506 9.02637 7.81506 10.4025C7.81506 11.7787 8.81799 13.1117 8.9551 13.2996C9.09729 13.4875 10.928 16.3109 13.7387 17.5271C15.516 18.2939 16.2117 18.36 17.1004 18.2279C17.6412 18.1467 18.7559 17.5525 18.9869 16.8949C19.218 16.2398 19.218 15.6787 19.1494 15.5619C19.0809 15.4375 18.893 15.3664 18.6162 15.2318Z" fill="white"/>
<path d="M23.9914 8.59219C23.4176 7.22871 22.5949 6.00488 21.5463 4.95371C20.4977 3.90508 19.2738 3.07988 17.9078 2.50859C16.5113 1.92207 15.0285 1.625 13.5 1.625H13.4492C11.9106 1.63262 10.4201 1.9373 9.01858 2.53652C7.66526 3.11543 6.45158 3.93809 5.41311 4.98672C4.37463 6.03535 3.55959 7.2541 2.99592 8.6125C2.41194 10.0191 2.1174 11.5146 2.12502 13.0533C2.13264 14.8154 2.55412 16.5648 3.34377 18.1289V21.9883C3.34377 22.6332 3.86682 23.1562 4.51174 23.1562H8.37365C9.93772 23.9459 11.6871 24.3674 13.4492 24.375H13.5026C15.0235 24.375 16.4987 24.0805 17.8875 23.5041C19.2459 22.9379 20.4672 22.1254 21.5133 21.0869C22.5619 20.0484 23.3871 18.8348 23.9635 17.4814C24.5627 16.0799 24.8674 14.5895 24.875 13.0508C24.8826 11.5045 24.583 10.0039 23.9914 8.59219ZM20.1549 19.7133C18.375 21.4754 16.0137 22.4453 13.5 22.4453H13.4569C11.9258 22.4377 10.4049 22.0568 9.06174 21.3408L8.84846 21.2266H5.27346V17.6516L5.1592 17.4383C4.44319 16.0951 4.06233 14.5742 4.05471 13.0432C4.04455 10.5117 5.01194 8.13516 6.78674 6.34512C8.55901 4.55508 10.928 3.56484 13.4594 3.55469H13.5026C14.7721 3.55469 16.0035 3.80098 17.1639 4.28848C18.2963 4.76328 19.3119 5.44629 20.1854 6.31973C21.0563 7.19062 21.7418 8.20879 22.2166 9.34121C22.7092 10.5143 22.9555 11.7584 22.9504 13.0432C22.9352 15.5721 21.9424 17.941 20.1549 19.7133Z" fill="white"/>
</svg>
